<svg xmlns="http://www.w3.org/2000/svg" viewBox="0 0 380 512"><defs><style>.cls-1{fill:#328093;}.cls-2{fill:#235967;}.cls-3{fill:#174550;}.cls-4{fill:#fff5f5;}.cls-5{fill:#ffe7bf;}.cls-6{fill:#ffd98f;}.cls-7{fill:#ffe1a8;}.cls-8{fill:#5c7093;}.cls-9{fill:#404d64;}</style></defs><g id="Capa_2" data-name="Capa 2"><g id="Capa_1-2" data-name="Capa 1"><path class="cls-1" d="M270,102V485.26Q260.46,490,250.47,494A35,35,0,0,0,216,465H29a10,10,0,0,0-9.67,7.47Q9.36,466.16,0,459V102A10,10,0,0,1,10,92H260A10,10,0,0,1,270,102Z"/><path class="cls-2" d="M20,472.9Q9.66,466.39,0,459V102A10,10,0,0,1,10,92H40a10,10,0,0,0-10,10V431a10,10,0,0,0-10,10Z"/><path class="cls-3" d="M115,118a10,10,0,1,1-10-10A10,10,0,0,1,115,118Zm50-10H135a10,10,0,0,0,0,20h30a10,10,0,0,0,0-20Z"/><path class="cls-4" d="M251,132V493.78a256.39,256.39,0,0,1-232-21.5V132a10,10,0,0,1,10-10H69v10a10,10,0,0,0,10,10H191a10,10,0,0,0,10-10V122h40A10,10,0,0,1,251,132Z"/><path class="cls-5" d="M251,132V493.78a251.9,251.9,0,0,1-29,9.61V122h19A10,10,0,0,1,251,132Z"/><path class="cls-6" d="M230,182v11a2,2,0,0,1-2,2H42a2,2,0,0,1-2-2V182a2,2,0,0,1,2-2H228A2,2,0,0,1,230,182ZM42,225h92a2,2,0,0,0,2-2V212a2,2,0,0,0-2-2H42a2,2,0,0,0-2,2v11A2,2,0,0,0,42,225Zm186,85H42a2,2,0,0,0-2,2v11a2,2,0,0,0,2,2H228a2,2,0,0,0,2-2V312A2,2,0,0,0,228,310Zm-50,30H42a2,2,0,0,0-2,2v11a2,2,0,0,0,2,2H178a2,2,0,0,0,2-2V342A2,2,0,0,0,178,340Z"/><path class="cls-7" d="M80,261.5a20,20,0,1,1-20-20A20,20,0,0,1,80,261.5Zm30-20a20,20,0,1,0,20,20A20,20,0,0,0,110,241.5Zm50,0a20,20,0,1,0,20,20A20,20,0,0,0,160,241.5Zm50,40a20,20,0,1,0-20-20A20,20,0,0,0,210,281.5Zm-150,90a20,20,0,1,0,20,20A20,20,0,0,0,60,371.5Zm50,0a20,20,0,1,0,20,20A20,20,0,0,0,110,371.5Zm50,0a20,20,0,1,0,20,20A20,20,0,0,0,160,371.5Zm50,0a20,20,0,1,0,20,20A20,20,0,0,0,210,371.5Z"/><path class="cls-8" d="M70,261.5a10,10,0,1,1-10-10A10,10,0,0,1,70,261.5Zm90,140a10,10,0,1,0-10-10A10,10,0,0,0,160,401.5ZM224,440H142a2,2,0,0,0-2,2v21a2,2,0,0,0,2,2h82a2,2,0,0,0,2-2V442A2,2,0,0,0,224,440Z"/><path class="cls-8" d="M258,0A122,122,0,1,1,136,122,122,122,0,0,1,258,0Z"/><path class="cls-9" d="M215.88,236.53a122,122,0,0,1,0-229.06C185.64,33.31,166,75,166,122S185.64,210.69,215.88,236.53Z"/><path class="cls-4" d="M237.76,65.68A9.22,9.22,0,0,0,229.24,60h-7.69A9.22,9.22,0,0,0,213,65.68L170.72,167.22a9.23,9.23,0,0,0,17,7.1L197.89,150h55L263,174.32a9.22,9.22,0,0,0,8.52,5.68h0a9.23,9.23,0,0,0,8.52-12.78ZM206.23,130l19.16-46,19.17,46ZM350,120a10,10,0,0,1-10,10H325v15a10,10,0,0,1-20,0V130H290a10,10,0,0,1,0-20h15V95a10,10,0,0,1,20,0v15h15A10,10,0,0,1,350,120Z"/></g></g></svg>